<?xml version="1.0" encoding="UTF-8" standalone="no"?>
<!-- Created with Inkscape (http://www.inkscape.org/) -->

<svg
   xmlns:dc="http://purl.org/dc/elements/1.1/"
   xmlns:cc="http://creativecommons.org/ns#"
   xmlns:rdf="http://www.w3.org/1999/02/22-rdf-syntax-ns#"
   xmlns:svg="http://www.w3.org/2000/svg"
   xmlns="http://www.w3.org/2000/svg"
   xmlns:xlink="http://www.w3.org/1999/xlink"
   xmlns:sodipodi="http://sodipodi.sourceforge.net/DTD/sodipodi-0.dtd"
   xmlns:inkscape="http://www.inkscape.org/namespaces/inkscape"
   width="1920px"
   height="1080px"
   viewBox="0 0 1920 1080"
   version="1.1"
   id="SVGRoot"
   inkscape:version="0.92.4 (f8dce91, 2019-08-02)"
   sodipodi:docname="Mercury_Server_News.svg">
  <defs
     id="defs3721">
    <linearGradient
       inkscape:collect="always"
       id="linearGradient3756">
      <stop
         style="stop-color:#ff00ff;stop-opacity:1;"
         offset="0"
         id="stop3752" />
      <stop
         style="stop-color:#ff00ff;stop-opacity:0;"
         offset="1"
         id="stop3754" />
    </linearGradient>
    <linearGradient
       inkscape:collect="always"
       xlink:href="#linearGradient3756"
       id="linearGradient3758"
       x1="1850"
       y1="1035.7142"
       x2="1794.2858"
       y2="928.57141"
       gradientUnits="userSpaceOnUse" />
    <clipPath
       clipPathUnits="userSpaceOnUse"
       id="clipPath515">
      <use
         x="0"
         y="0"
         xlink:href="#g511"
         id="use517"
         width="100%"
         height="100%" />
    </clipPath>
  </defs>
  <sodipodi:namedview
     id="base"
     pagecolor="#ffffff"
     bordercolor="#666666"
     borderopacity="1.0"
     inkscape:pageopacity="0.0"
     inkscape:pageshadow="2"
     inkscape:zoom="0.7"
     inkscape:cx="956.62402"
     inkscape:cy="558.45858"
     inkscape:document-units="px"
     inkscape:current-layer="layer1"
     showgrid="false"
     inkscape:window-width="1920"
     inkscape:window-height="1016"
     inkscape:window-x="1920"
     inkscape:window-y="27"
     inkscape:window-maximized="1"
     inkscape:snap-page="true" />
  <metadata
     id="metadata3724">
    <rdf:RDF>
      <cc:Work
         rdf:about="">
        <dc:format>image/svg+xml</dc:format>
        <dc:type
           rdf:resource="http://purl.org/dc/dcmitype/StillImage" />
        <dc:title></dc:title>
      </cc:Work>
    </rdf:RDF>
  </metadata>
  <g
     inkscape:label="Layer 1"
     inkscape:groupmode="layer"
     id="layer1">
    <rect
       style="fill:#2aff2a"
       id="rect343"
       width="84.285713"
       height="1080"
       x="0"
       y="0" />
    <text
       xml:space="preserve"
       style="font-style:normal;font-weight:normal;font-size:40px;line-height:1.25;font-family:sans-serif;letter-spacing:0px;word-spacing:0px;fill:#000000;fill-opacity:1;stroke:none"
       x="-709.42072"
       y="56.137093"
       id="text347"
       transform="rotate(-90.314363)"><tspan
         sodipodi:role="line"
         id="tspan345"
         x="-709.42072"
         y="56.137093">Servers &amp; Families</tspan></text>
    <rect
       style="fill:#ff2a2a"
       id="rect349"
       width="84.285713"
       height="85.714287"
       x="0"
       y="0" />
    <text
       xml:space="preserve"
       style="font-style:normal;font-weight:normal;font-size:40px;line-height:1.25;font-family:sans-serif;letter-spacing:0px;word-spacing:0px;fill:#000000;fill-opacity:1;stroke:none"
       x="-263.2283"
       y="53.610863"
       id="text353"
       transform="rotate(-91.029751)"><tspan
         sodipodi:role="line"
         id="tspan351"
         x="-263.2283"
         y="53.610863">To Home</tspan></text>
    <path
       style="fill:#000000"
       id="path355"
       d="m 33.404128,88.992902 c 0.107831,-4.725336 0.05823,-9.452637 0.03132,-14.178669 0.09939,-2.925482 0.74713,-5.788767 1.078211,-8.691066 0.268017,-2.727515 0.291632,-5.470568 0.314473,-8.208672 0.01335,-2.849002 0.006,-5.698052 0.0029,-8.54707 -0.01932,-1.788121 0.02895,-3.577262 -0.0247,-5.364992 -0.01899,-0.632725 -0.107617,-0.79757 0.04332,-0.419635 2.948882,-1.602968 -0.183378,1.945008 0.308504,1.666887 30.065289,-16.999552 21.010979,-14.273251 15.80054,-8.410393 -1.391224,1.888186 -2.832367,3.736178 -4.269891,5.589895 -1.476177,1.850683 -2.671137,3.881758 -3.939464,5.870556 -0.917779,1.925968 -2.06348,3.700904 -3.229906,5.478783 -0.895976,1.950364 -2.244388,3.444223 -3.800185,4.867472 -1.343812,1.516456 -2.595263,3.117281 -4.023108,4.556776 -1.28254,1.065587 -2.189159,2.875382 -3.642681,3.707473 -33.0522844,13.766871 -20.4876652,11.029457 -15.697164,3.922463 1.425566,-1.876923 2.382804,-4.042567 3.521058,-6.091857 1.164317,-2.150606 2.35806,-4.28689 3.865753,-6.21776 1.801863,-2.325137 3.52397,-4.711631 5.434635,-6.949928 1.520026,-1.794613 3.102177,-3.546439 4.836276,-5.136136 7.240898,-5.70498 15.396417,-14.526929 24.550085,-14.623113 2.189455,0.733229 3.46569,2.388912 4.539687,4.34129 1.299952,2.184314 2.555393,4.384946 3.887013,6.549399 1.249891,2.394455 3.157896,4.357648 4.547151,6.680837 1.478973,1.959088 2.711197,3.994078 3.857754,6.155091 0.902927,1.989097 1.976195,3.875958 3.07994,5.756117 0,0 -18.402231,10.637045 -18.402231,10.637045 v 0 c -1.109015,-1.908118 -2.200587,-3.819411 -3.122625,-5.827997 -1.133818,-2.121464 -2.394,-4.108129 -3.795997,-6.071983 -1.376871,-2.315876 -3.324715,-4.248413 -4.54331,-6.652969 -1.339514,-2.192525 -2.610442,-4.419188 -3.947373,-6.613392 -0.609317,-1.065217 -1.594038,-2.776629 -3.049308,-2.02961 -6.231134,3.504343 -8.179622,4.604914 16.702681,-9.769947 0.36917,-0.213275 -0.707028,0.476725 -1.056596,0.720804 -1.243279,0.868097 -2.281122,1.939442 -3.581518,2.726124 -1.749028,1.537244 -3.355073,3.133823 -4.957612,4.815798 -1.766893,2.322571 -3.794588,4.439586 -5.447022,6.857513 -1.368247,1.960428 -2.979333,3.7288 -3.996627,5.931178 -1.092679,2.157621 -2.298929,4.241307 -3.35994,6.406333 -0.695708,0.796734 -1.011542,1.778468 -1.760496,2.524339 -6.01289,5.988129 -8.332374,5.753277 -21.7646931,10.332766 0.5309026,-1.109906 2.7831251,-2.776563 3.6937111,-3.788314 1.218592,-1.612409 2.77101,-2.943923 4.040534,-4.515964 1.121915,-1.750218 3.089398,-2.513126 3.97685,-4.478279 0.870266,-1.996573 2.509969,-3.475825 3.199316,-5.567916 1.167604,-2.122392 2.501617,-4.112581 3.8465,-6.11909 1.444991,-1.867211 3.019896,-3.621738 4.220901,-5.650921 5.381142,-6.894695 8.610618,-6.415357 20.406803,-13.337279 0.174306,-0.102282 0.439263,-0.121339 0.606252,-0.0075 0.408833,0.278701 0.66436,0.733417 0.99654,1.100126 1.040118,1.989239 0.0279,4.626524 0.368853,6.807996 0.0031,2.85317 0.0096,5.706343 0.0059,8.559515 -0.01037,2.795332 -0.01578,5.593879 -0.215223,8.38358 -0.254038,2.876407 -0.794391,5.697903 -1.26113,8.544447 -0.02669,4.715383 -0.07706,9.432079 0.03133,14.146747 0,0 -18.90603,9.633104 -18.90603,9.633104 z"
       inkscape:connector-curvature="0" />
    <rect
       style="fill:#00ffff"
       id="rect357"
       width="267.14285"
       height="1080"
       x="84.285713"
       y="0" />
    <rect
       style="fill:#800080"
       id="rect377"
       width="267.14285"
       height="77.14286"
       x="84.285713"
       y="1002.8571" />
    <text
       xml:space="preserve"
       style="font-style:normal;font-weight:normal;font-size:34.3857193px;line-height:1.25;font-family:sans-serif;letter-spacing:0px;word-spacing:0px;fill:#f4eed7;fill-opacity:1;stroke:none;stroke-width:0.85964292"
       x="100.90116"
       y="909.99347"
       id="text381"
       transform="scale(0.85964295,1.1632737)"><tspan
         sodipodi:role="line"
         id="tspan379"
         x="100.90116"
         y="909.99347"
         style="stroke-width:0.85964292">Profile &amp; Settings</tspan></text>
    <text
       xml:space="preserve"
       style="font-style:normal;font-weight:normal;font-size:40px;line-height:1.25;font-family:sans-serif;letter-spacing:0px;word-spacing:0px;fill:#000000;fill-opacity:1;stroke:none"
       x="-601.28027"
       y="219.60242"
       id="text385"
       transform="rotate(-90.210474)"><tspan
         sodipodi:role="line"
         x="-601.28027"
         y="219.60242"
         id="tspan387">Channels</tspan></text>
    <rect
       style="fill:#ffaaaa"
       id="rect461"
       width="267.14285"
       height="85.714287"
       x="84.285713"
       y="0" />
    <text
       xml:space="preserve"
       style="font-style:normal;font-weight:normal;font-size:28.73452187px;line-height:1.25;font-family:sans-serif;letter-spacing:0px;word-spacing:0px;fill:#000000;fill-opacity:1;stroke:none;stroke-width:0.71836305"
       x="125.07252"
       y="38.996849"
       id="text465"
       transform="scale(0.71836304,1.3920538)"><tspan
         sodipodi:role="line"
         id="tspan463"
         x="125.07252"
         y="38.996849"
         style="stroke-width:0.71836305">Server Name &amp; Settings</tspan></text>
    <rect
       style="fill:#ff00ff"
       id="rect469"
       width="552.85712"
       height="81.428574"
       x="404.28571"
       y="955.71429" />
    <text
       xml:space="preserve"
       style="font-style:normal;font-weight:normal;font-size:25.03439331px;line-height:1.25;font-family:sans-serif;letter-spacing:0px;word-spacing:0px;fill:#000000;fill-opacity:1;stroke:none;stroke-width:0.62585986"
       x="354.62619"
       y="1297.141"
       id="text473"
       transform="scale(1.3023401,0.76784859)"><tspan
         sodipodi:role="line"
         id="tspan471"
         x="354.62619"
         y="1297.141"
         style="stroke-width:0.62585986">Create New Post </tspan><tspan
         sodipodi:role="line"
         x="354.62619"
         y="1328.434"
         id="tspan475"
         style="stroke-width:0.62585986">(For those with permission)</tspan></text>
    <g
       id="g513"
       clip-path="url(#clipPath515)"
       transform="translate(15.714284,458.57143)">
      <g
         inkscape:label="Clip"
         id="g511">
        <rect
           y="57.142857"
           x="441.42856"
           height="391.42856"
           width="315.71429"
           id="rect477"
           style="fill:#008000" />
        <rect
           y="57.142857"
           x="441.42856"
           height="148.57143"
           width="315.71429"
           id="rect479"
           style="fill:#ffff00" />
        <rect
           y="172.85715"
           x="441.42856"
           height="78.571426"
           width="315.71429"
           id="rect481"
           style="fill:#ff00ff" />
        <text
           id="text485"
           y="121.42857"
           x="462.85715"
           style="font-style:normal;font-weight:normal;font-size:40px;line-height:1.25;font-family:sans-serif;letter-spacing:0px;word-spacing:0px;fill:#000000;fill-opacity:1;stroke:none"
           xml:space="preserve"><tspan
             y="121.42857"
             x="462.85715"
             id="tspan483"
             sodipodi:role="line">Image</tspan></text>
        <text
           id="text489"
           y="225.71429"
           x="470.00003"
           style="font-style:normal;font-weight:normal;font-size:40px;line-height:1.25;font-family:sans-serif;letter-spacing:0px;word-spacing:0px;fill:#000000;fill-opacity:1;stroke:none"
           xml:space="preserve"><tspan
             y="225.71429"
             x="470.00003"
             id="tspan487"
             sodipodi:role="line">Title</tspan></text>
        <text
           id="text493"
           y="311.42859"
           x="469.99997"
           style="font-style:normal;font-weight:normal;font-size:40px;line-height:1.25;font-family:sans-serif;letter-spacing:0px;word-spacing:0px;fill:#000000;fill-opacity:1;stroke:none"
           xml:space="preserve"><tspan
             y="311.42859"
             x="469.99997"
             id="tspan491"
             sodipodi:role="line">Text</tspan></text>
        <rect
           y="397.14285"
           x="552.85712"
           height="42.857143"
           width="85.714287"
           id="rect495"
           style="fill:#ff6600" />
      </g>
    </g>
    <text
       xml:space="preserve"
       style="font-style:normal;font-weight:normal;font-size:40px;line-height:1.25;font-family:sans-serif;letter-spacing:0px;word-spacing:0px;fill:#000000;fill-opacity:1;stroke:none"
       x="678.57147"
       y="894.28571"
       id="text499"><tspan
         sodipodi:role="line"
         id="tspan497"
         x="678.57147"
         y="894.28571">Expand</tspan></text>
    <path
       style="fill:#800000"
       id="path519"
       d="m 665.52524,887.39799 c -4.66939,-0.64502 -9.28026,-1.61821 -13.96833,-2.17087 -3.29062,-0.36309 -6.60226,-0.41544 -9.90915,-0.43579 -2.8575,-0.005 -5.715,0.008 -8.57249,0.0135 -2.85039,0.005 -5.7008,0.006 -8.5512,0.007 -2.51485,0.008 -5.02967,0.0104 -7.54453,0.007 -2.42348,-0.24131 -4.68902,0.54618 -7.0308,1.0437 -1.51279,0.74168 -2.44086,-1.55996 -2.33826,-2.76596 0.0154,-0.18065 0.34897,-0.113 0.50099,-0.21179 0.21643,-0.14064 0.39491,-0.33247 0.59236,-0.49871 6.70555,-4.59978 12.78809,-7.37432 20.96857,-11.98746 1.12883,-0.63657 2.1271,-1.12949 3.36349,-1.53882 0.88657,-0.83665 2.11278,-0.99166 3.15289,-1.49867 1.03978,-0.50685 1.83228,-1.07698 2.95878,-1.45476 0.77947,-0.84059 1.92003,-0.95478 2.877,-1.43453 1.00985,-0.50627 1.75017,-1.05936 2.85559,-1.4286 2.45998,-0.98578 4.72213,-2.29327 7.037,-3.55548 2.85286,-0.95956 5.65723,-1.98922 8.44039,-3.12337 7.41053,-3.00594 20.94287,-11.52961 -11.84336,7.27219 1.25815,-1.35501 1.37847,2.27187 1.85094,2.08964 6.32601,-2.43993 22.51147,-14.72251 17.7969,-9.84967 -0.38494,0.39786 -47.65245,27.61485 -1.57833,1.04499 -0.87781,0.59941 -0.84032,0.5965 -1.79924,1.1519 -64.09924,37.12595 11.84708,-6.71266 -3.04698,1.90579 -6.40819,3.7081 -12.84512,7.3663 -19.26768,11.04945 42.43862,-24.34369 1.9971,-1.1254 -2.11372,1.1446 -5.75928,3.18028 22.79227,-13.1538 17.12901,-9.80554 -6.38838,3.77698 -12.86022,7.41105 -19.30454,11.09177 -0.32611,0.18626 -1.33043,0.69664 -1.00543,0.50844 5.78604,-3.35045 11.59334,-6.66405 17.39002,-9.99608 -1.62515,0.98039 -2.91007,2.36039 -4.31375,3.61086 -1.33745,1.84265 -3.01975,3.35787 -4.6343,4.95256 -1.71614,1.47126 -3.29817,3.05599 -4.64234,4.87556 -0.70919,0.775 -1.21345,1.7183 -1.95841,2.46254 -0.10499,0.10489 -0.54156,0.12971 -0.40437,0.18631 0.0886,0.0366 0.18128,0.0623 0.27191,0.0935 0.20969,0.0588 0.44657,0.0575 0.62906,0.17639 1.86706,1.21587 2.69244,2.60719 4.90402,3.67167 2.21774,1.12606 4.11562,2.68442 6.10047,4.15002 1.57821,1.36217 2.94493,2.94738 4.51267,4.31684 1.42526,1.4229 2.75412,2.96053 4.27127,4.28903 1.42704,1.42296 2.76125,2.95792 4.2812,4.28533 0.66545,0.55352 1.37992,0.88133 2.06049,1.42084 0,0 -18.00173,11.40895 -18.00173,11.40895 v 0 c -0.75134,-0.50286 -1.52506,-0.98396 -2.1658,-1.63042 -1.45576,-1.40055 -2.85923,-2.85507 -4.28287,-4.28774 -1.45082,-1.3997 -2.84689,-2.85541 -4.26838,-4.28444 -1.45742,-1.39638 -2.85657,-2.85353 -4.40088,-4.15741 -1.85856,-1.46005 -3.79771,-2.78676 -5.88985,-3.8974 -2.10863,-1.262 -3.84229,-2.98295 -5.92078,-4.29532 -2.31254,-2.76159 -1.02064,-3.16029 0.69845,-5.57367 1.05613,-1.16638 1.76027,-2.60305 2.90306,-3.70393 0.25475,-0.24541 0.58707,-0.40016 0.84388,-0.64341 0.27621,-0.26164 0.4978,-0.57548 0.7467,-0.86322 1.23551,-0.93034 2.24455,-2.07501 3.37807,-3.11246 0.25682,-0.23506 0.62397,-0.34458 0.84557,-0.61311 0.23474,-0.28445 0.32145,-0.66387 0.48217,-0.9958 1.16145,-1.51887 2.68142,-2.81965 4.15356,-4.01128 6.33358,-3.71892 12.66125,-7.44793 19.00074,-11.15677 0.3162,-0.18499 1.28268,-0.70831 0.96583,-0.52444 -5.68939,3.30169 -22.86506,13.01612 -17.0838,9.87808 6.52557,-3.54204 12.73903,-7.64756 19.31743,-11.09048 0.82134,-0.42986 -50.02488,28.98897 2.09815,-1.18132 -5.71504,3.32016 -11.42751,6.64473 -17.14511,9.96047 -0.34095,0.19773 0.67522,-0.40677 1.01508,-0.60635 6.38376,-3.74895 12.91027,-7.26421 19.15577,-11.23924 5.57038,-3.54535 -11.40476,6.65794 -17.12893,9.94922 -0.60742,0.34926 2.16934,-1.47661 1.79654,-1.09129 50.83979,-29.75209 1.45439,-0.85922 1.6122,-0.92126 15.57902,-6.12513 15.86069,-17.81627 20.65859,-8.41657 0.13625,0.26693 -2.00236,-0.67622 -0.63548,0.63603 -8.02228,4.60654 -15.96432,10.14324 -24.7254,13.50487 -2.75834,1.11466 -5.66844,1.88141 -8.28571,3.3297 -2.31305,1.30759 -4.77935,2.31133 -7.2013,3.39722 -1.89377,0.99014 -3.79359,1.96726 -5.73686,2.85295 -2.01477,1.02396 -4.04515,2.01605 -6.11896,2.91429 -0.36996,0.17422 -0.73992,0.34845 -1.10987,0.52267 -0.36313,0.18704 -0.72092,0.38484 -1.08939,0.56112 -0.37247,0.1782 -1.48831,0.71131 -1.13248,0.50187 5.69453,-3.35188 11.43677,-6.62203 17.15515,-9.93305 -1.24025,0.48541 -0.73731,0.11858 -1.55018,1.04138 -0.21913,0.0887 -0.46493,0.12878 -0.6574,0.26604 -0.16166,0.11528 -0.19856,0.56668 -0.3701,0.46671 -0.44529,-0.2595 -0.63265,-0.81393 -0.93806,-1.22908 -0.68538,-0.93165 -0.81266,-1.03089 0.27834,-1.19429 2.41081,-0.48964 4.7918,-0.87147 7.26822,-0.67713 2.50833,-0.003 5.01661,-3.9e-4 7.52492,0.006 2.8499,-0.001 5.69979,-0.004 8.54967,-0.0104 2.86186,-0.006 5.72394,-0.0208 8.58564,0.0179 3.33633,0.0693 6.67422,0.21896 9.98239,0.68616 4.67473,0.66839 9.29819,1.69907 14.00761,2.09357 0,0 -17.30222,12.2806 -17.30222,12.2806 z"
       inkscape:connector-curvature="0" />
    <rect
       style="fill:#800000"
       id="rect521"
       width="1568.5714"
       height="318.57144"
       x="351.42856"
       y="0" />
    <text
       xml:space="preserve"
       style="font-style:normal;font-weight:normal;font-size:40px;line-height:1.25;font-family:sans-serif;letter-spacing:0px;word-spacing:0px;fill:#ffffff;fill-opacity:1;stroke:none"
       x="457.14288"
       y="154.28572"
       id="text525"><tspan
         sodipodi:role="line"
         id="tspan523"
         x="457.14288"
         y="154.28572">Stickied News</tspan></text>
  </g>
</svg>
