<?xml version="1.0" encoding="UTF-8" standalone="no"?>
<!-- Created with Inkscape (http://www.inkscape.org/) -->

<svg
   xmlns:dc="http://purl.org/dc/elements/1.1/"
   xmlns:cc="http://creativecommons.org/ns#"
   xmlns:rdf="http://www.w3.org/1999/02/22-rdf-syntax-ns#"
   xmlns:svg="http://www.w3.org/2000/svg"
   xmlns="http://www.w3.org/2000/svg"
   xmlns:xlink="http://www.w3.org/1999/xlink"
   xmlns:sodipodi="http://sodipodi.sourceforge.net/DTD/sodipodi-0.dtd"
   xmlns:inkscape="http://www.inkscape.org/namespaces/inkscape"
   width="1920px"
   height="1080px"
   viewBox="0 0 1920 1080"
   version="1.1"
   id="SVGRoot"
   inkscape:version="0.92.4 (5da689c313, 2019-01-14)"
   sodipodi:docname="Mercury_Server_Channel.svg">
  <defs
     id="defs3721">
    <linearGradient
       inkscape:collect="always"
       id="linearGradient3756">
      <stop
         style="stop-color:#ff00ff;stop-opacity:1;"
         offset="0"
         id="stop3752" />
      <stop
         style="stop-color:#ff00ff;stop-opacity:0;"
         offset="1"
         id="stop3754" />
    </linearGradient>
    <linearGradient
       inkscape:collect="always"
       xlink:href="#linearGradient3756"
       id="linearGradient3758"
       x1="1850"
       y1="1035.7142"
       x2="1794.2858"
       y2="928.57141"
       gradientUnits="userSpaceOnUse" />
  </defs>
  <sodipodi:namedview
     id="base"
     pagecolor="#ffffff"
     bordercolor="#666666"
     borderopacity="1.0"
     inkscape:pageopacity="0.0"
     inkscape:pageshadow="2"
     inkscape:zoom="0.7"
     inkscape:cx="956.62402"
     inkscape:cy="596.007"
     inkscape:document-units="px"
     inkscape:current-layer="layer1"
     showgrid="false"
     inkscape:window-width="1920"
     inkscape:window-height="1016"
     inkscape:window-x="1920"
     inkscape:window-y="27"
     inkscape:window-maximized="1"
     inkscape:snap-page="true" />
  <metadata
     id="metadata3724">
    <rdf:RDF>
      <cc:Work
         rdf:about="">
        <dc:format>image/svg+xml</dc:format>
        <dc:type
           rdf:resource="http://purl.org/dc/dcmitype/StillImage" />
        <dc:title></dc:title>
      </cc:Work>
    </rdf:RDF>
  </metadata>
  <g
     inkscape:label="Layer 1"
     inkscape:groupmode="layer"
     id="layer1">
    <rect
       style="fill:#00ffff"
       id="rect3738"
       width="1920"
       height="1080"
       x="0"
       y="0" />
    <rect
       style="fill:#99ff55;stroke-width:1.27738392"
       id="rect3740"
       width="1852.8572"
       height="55.714287"
       x="31.428572"
       y="992.85712" />
    <text
       xml:space="preserve"
       style="font-style:normal;font-weight:normal;font-size:40px;line-height:1.25;font-family:sans-serif;letter-spacing:0px;word-spacing:0px;fill:#000000;fill-opacity:1;stroke:none"
       x="674.28571"
       y="1032.8573"
       id="text3744"><tspan
         sodipodi:role="line"
         id="tspan3742"
         x="674.28571"
         y="1032.8573">Text bar for messages</tspan></text>
    <rect
       style="fill:#ff00ff;stroke-width:1.12163496"
       id="rect3746"
       width="78.57148"
       height="55.714287"
       x="31.428572"
       y="992.85712" />
    <text
       xml:space="preserve"
       style="font-style:normal;font-weight:normal;font-size:40px;line-height:1.25;font-family:sans-serif;letter-spacing:0px;word-spacing:0px;fill:#000000;fill-opacity:1;stroke:none"
       x="145.71434"
       y="1035.7142"
       id="text3750"><tspan
         sodipodi:role="line"
         id="tspan3748"
         x="145.71434"
         y="1035.7142"
         style="fill:#000000;fill-opacity:1">External Media</tspan></text>
    <rect
       style="fill:#ff0000;stroke-width:0.93300283"
       id="rect3774"
       width="1920"
       height="85.714287"
       x="-2.8421709e-14"
       y="0" />
    <rect
       style="fill:#ffff00;stroke-width:0.525195"
       id="rect3776"
       width="84.285721"
       height="85.714279"
       x="0"
       y="0" />
    <text
       xml:space="preserve"
       style="font-style:normal;font-weight:normal;font-size:40px;line-height:1.25;font-family:sans-serif;letter-spacing:0px;word-spacing:0px;fill:#000000;fill-opacity:1;stroke:none;"
       x="7.142858"
       y="135.71428"
       id="text3780"><tspan
         sodipodi:role="line"
         id="tspan3778"
         x="7.142858"
         y="135.71428">Opens Side Bar</tspan></text>
    <text
       xml:space="preserve"
       style="font-style:normal;font-weight:normal;font-size:40px;line-height:1.25;font-family:sans-serif;letter-spacing:0px;word-spacing:0px;fill:#ffff00;fill-opacity:1;stroke:none;"
       x="118.57144"
       y="54.285713"
       id="text3784"><tspan
         sodipodi:role="line"
         id="tspan3782"
         x="118.57144"
         y="54.285713">Channel Name and Description</tspan></text>
    <path
       style="fill:#000000"
       id="path3786"
       d="M 48.886479,102.05437 C 47.948123,97.320258 47.171094,92.559882 46.660805,87.760687 46.117869,84.898042 45.45161,82.073071 45.112134,79.175629 44.841756,76.386286 44.83055,73.580993 44.814926,70.78127 c 0.14644,-2.618856 -0.04498,-5.155239 -0.556118,-7.717651 -0.259825,-1.912319 -0.745864,-3.781026 -1.632881,-5.501181 -1.101134,-1.930943 -1.4639,-4.134755 -2.17596,-6.216179 -0.904619,-2.37605 -0.918183,-4.931284 -1.350093,-7.400271 1.356572,1.396081 -0.304863,-0.979122 -0.356113,-0.71718 -1.784844,9.122393 24.947854,-12.860801 17.123836,-8.46673 -1.595314,1.568222 -2.726299,3.51985 -4.147032,5.238999 -1.349961,1.763922 -3.028962,3.196068 -4.122091,5.141369 -1.039022,2.09134 -2.376703,3.979342 -3.773677,5.838133 -1.441738,1.456837 -2.676493,3.04323 -3.902343,4.675343 -1.12996,1.75937 -1.765016,3.806651 -2.400731,5.789162 -16.533534,10.194649 -21.670625,14.529296 -18.928531,3.164452 0.648079,-2.164791 1.652482,-4.178404 2.547948,-6.243324 0.959824,-1.916532 1.980431,-3.80423 2.867343,-5.756311 1.236094,-1.97447 2.256169,-4.034633 3.30866,-6.109452 0.938555,-1.697722 1.939955,-3.503261 3.458673,-4.747688 33.159129,-26.122885 10.955717,-8.678532 21.153337,-10.848814 0.96672,-0.20574 1.919272,-0.680504 2.908839,-0.896 0.86617,-0.431755 1.977,-0.120391 2.852763,-0.457072 0.225041,-0.08652 0.352736,-0.340424 0.569603,-0.445766 0.552223,-0.26824 1.176394,-0.351784 1.762935,-0.533092 2.014264,-0.436959 4.07526,-0.503922 6.127885,-0.536001 2.095601,-0.269005 3.975748,0.660865 6.005735,1.019885 1.745644,1.069501 3.853432,1.187331 5.654263,2.036792 1.832001,0.299986 3.168415,1.666702 4.815585,2.346053 1.73834,1.035584 2.480354,2.626511 3.403938,4.341425 0.742394,1.732653 1.436311,3.447859 2.308617,5.121905 0.196939,0.695507 0.572686,1.250303 0.99814,1.815481 0,0 -18.374043,10.844677 -18.374043,10.844677 v 0 c -0.450516,-0.658259 -0.937312,-1.311354 -1.145594,-2.095772 -0.834125,-1.675039 -1.572692,-3.350006 -2.258297,-5.087347 -0.74755,-1.369905 -1.24084,-2.577895 -2.778444,-3.248013 -1.473281,-0.908972 -2.972937,-1.663473 -4.647239,-2.154498 -1.848328,-0.502834 -3.605456,-1.235037 -5.442597,-1.76079 -1.908804,-0.438759 -3.722019,-0.902313 -5.704493,-0.605452 -1.963568,0.125236 -3.940095,0.324939 -5.797487,1.019582 -1.730454,0.590415 -3.465221,0.899556 -5.254299,1.307453 -7.995325,2.294595 -19.417468,4.624217 12.730972,-8.855482 -2.243776,0.914063 -2.520549,1.754592 -3.98778,3.633325 -0.997876,2.140013 -1.921046,4.277574 -3.2364,6.210987 -1.209641,1.749914 -1.848369,3.87103 -2.881831,5.730136 -1.20998,1.786562 -1.863995,3.947778 -2.697665,5.925847 -0.476165,0.993378 -0.571959,1.92092 -0.833768,2.981119 -1.884496,7.631291 -9.151495,6.534703 -18.995592,11.589274 1.46327,-1.54887 1.418106,-4.120479 2.389722,-5.956741 1.068802,-1.828137 2.314196,-3.469437 3.772278,-4.988321 1.679709,-1.46911 2.962204,-3.461135 3.973677,-5.432707 2.769617,-4.500565 -1.62851,2.793299 1.1051,-2.287263 0.654985,-1.217326 2.070598,-2.000814 2.90296,-3.081076 1.300811,-1.850634 2.878235,-3.482144 4.000468,-5.464357 3.458804,-5.746607 18.164946,-18.225588 21.671975,-9.025119 0.529682,2.361047 0.397077,4.839954 1.22844,7.147056 0.68604,1.983858 1.04258,4.069168 2.042258,5.927577 0.989893,1.886857 1.654401,3.92361 1.889945,6.045809 0.542403,2.69267 0.956349,5.330116 0.722442,8.095072 0.0075,2.733322 0.0049,5.470409 0.206989,8.197893 0.276835,2.923098 0.898905,5.774116 1.471506,8.650455 0.400077,4.719825 1.030046,9.425859 2.162192,14.031731 0,0 -18.686372,10.041758 -18.686372,10.041758 z"
       inkscape:connector-curvature="0" />
    <rect
       style="fill:#7fff2a;stroke-width:1.03509831"
       id="rect3788"
       width="88.571426"
       height="85.714287"
       x="1831.4286"
       y="0" />
    <text
       xml:space="preserve"
       style="font-style:normal;font-weight:normal;font-size:40px;line-height:1.25;font-family:sans-serif;letter-spacing:0px;word-spacing:0px;fill:#000000;fill-opacity:1;stroke:none"
       x="1558.5715"
       y="137.14287"
       id="text3792"><tspan
         sodipodi:role="line"
         id="tspan3790"
         x="1558.5715"
         y="137.14287">Open User Bar</tspan></text>
    <path
       style="fill:#000000"
       id="path3794"
       d="m 1821.6361,108.00074 c 2.5783,-4.06272 4.5839,-8.442198 6.5839,-12.806213 1.4541,-3.01229 2.33,-6.263608 3.2086,-9.48024 0.8467,-2.376916 1.4944,-4.832017 2.3961,-7.188669 0.704,-2.259309 1.6024,-4.463785 2.1741,-6.761343 0.6372,-2.818374 1.4486,-5.57711 2.3977,-8.303187 0.6495,-2.28271 1.5102,-4.485627 2.1857,-6.760645 0.8846,-2.449792 1.4488,-4.991301 2.2258,-7.477745 0.5398,-0.358558 0.6655,-3.179738 -0.4894,-1.824487 -16.3833,9.377304 57.0468,-32.459228 -5.0865,2.948609 5.7563,-3.296633 11.5058,-6.605224 17.269,-9.889899 0.074,-0.04237 -0.4718,0.321488 -2.0062,1.208365 -6.428,3.715452 -12.9103,7.338459 -19.288,11.139645 -5.6652,3.376511 11.4174,-6.605092 17.1502,-9.865484 0.3518,-0.200077 -0.6693,0.455154 -1.004,0.682732 -49.2802,28.293709 -3.9819,2.284355 -2.0258,1.167894 0.3261,-0.18613 -0.6281,0.412599 -0.9545,0.598134 -6.4204,3.649043 -12.7269,7.509673 -19.285,10.90506 -3.0664,1.587633 53.0412,-30.062285 -2.0434,1.048916 -2.3451,1.292114 -4.955,2.203537 -7.1722,3.702969 -1.9263,1.112869 -4.1662,1.751881 -5.9785,3.034628 -1.9524,0.900917 -3.7494,1.896741 -5.8139,2.559161 -6.5085,2.035988 -27.0578,18.884694 16.516,-12.33812 0.6761,-0.48448 1.698,-0.605437 2.4495,-0.98574 2.5066,-0.994036 5.0781,-1.733794 7.5897,-2.730215 2.8399,-1.015784 5.7441,-1.80637 8.5629,-2.883859 2.861,-0.836928 5.4736,-2.06035 8.4177,-2.602699 1.4926,-1.245035 3.3627,-1.720104 5.078,-2.502465 0.7548,-0.344269 1.4454,-0.817808 2.1956,-1.171851 2.3054,-0.626699 4.3626,-1.706578 6.723,-2.16486 2.3874,-0.368325 2.3172,-1.76299 4.8897,-1.022128 1.708,1.617029 2.4868,3.862916 3.5441,5.900323 0.9887,2.365796 1.75,4.833034 2.8504,7.152111 0.9667,1.890719 2.1343,3.676192 3.2232,5.504002 1.2932,1.651258 2.4539,3.447218 3.3652,5.339629 0.9095,2.194241 1.7769,4.347289 2.2516,6.683713 0.302,1.07445 0.6448,2.135019 0.9526,3.207872 0,0 -18.6812,10.170755 -18.6812,10.170755 v 0 c -0.3104,-1.136854 -0.6613,-2.258405 -1.0336,-3.376802 -0.3706,-2.184151 -1.1713,-4.154485 -2.0054,-6.192703 -0.8614,-1.8465 -2.0581,-3.531341 -3.2679,-5.163412 -1.1246,-1.882667 -2.3198,-3.730512 -3.306,-5.686012 -1.0942,-2.29288 -1.8601,-4.731891 -2.8227,-7.079804 -0.3537,-0.676823 -1.6916,-4.174937 -2.4114,-4.014942 -1.4694,0.429344 -2.8065,1.459962 -4.4323,1.510456 -2.1891,0.721427 -4.344,1.585089 -6.4588,2.493095 -2.4428,1.217728 -4.9566,2.404724 -7.5356,3.274762 -2.7997,0.788134 -5.4731,1.975022 -8.2727,2.778456 -2.8724,0.90491 -5.6909,1.960694 -8.549,2.909943 -2.5743,0.853273 -5.0699,1.901629 -7.6458,2.753383 -11.108,2.547756 7.0151,-10.538286 14.587,-12.882737 1.9219,-0.813864 3.7422,-1.862901 5.5993,-2.81128 2.0442,-0.880942 3.9821,-2.001863 5.9546,-3.029658 2.4494,-1.143819 4.7922,-2.501892 7.2841,-3.561284 -43.3676,25.090763 -0.7116,0.373435 2.0521,-1.059244 5.8898,-3.053354 -11.4942,6.628602 -17.2317,9.959516 -0.322,0.186954 0.6623,-0.341142 0.9848,-0.527319 6.3973,-3.693412 12.7443,-7.474475 19.174,-11.111148 5.7495,-3.251903 -11.422,6.637847 -17.133,9.95677 11.9885,-7.245522 38.7262,-22.408759 3.1371,-1.972096 -0.6741,0.387108 1.3161,-0.828487 1.9897,-1.216471 6.3985,-3.685354 12.7877,-7.386826 19.1815,-11.080239 -5.403,3.127814 -21.6306,12.479527 -16.2136,9.375904 5.4072,-3.097997 13.9252,-11.2754 22.066,-11.443282 1.9802,1.068744 3.1315,2.834966 2.3151,5.113113 -0.6917,2.556455 -1.5971,5.023801 -2.135,7.624778 -0.5239,1.082717 -0.6665,2.168999 -1.0568,3.301186 -0.2454,0.711599 -0.6572,1.358901 -0.8962,2.072652 -0.1416,0.422729 -0.199,0.869113 -0.2985,1.303669 -0.8284,2.711201 -1.9313,5.307827 -2.5112,8.100054 -0.4256,2.464304 -1.3319,4.667597 -1.9911,7.062029 -0.9142,2.315196 -1.5373,4.698238 -2.5555,6.982437 -0.8068,3.355861 -1.812,6.692377 -3.0795,9.899602 -2.2408,4.273814 -3.9954,8.808734 -6.4486,12.983505 0,0 -19.4051,8.558454 -19.4051,8.558454 z"
       inkscape:connector-curvature="0" />
    <rect
       style="fill:#ff7f2a;stroke-width:0.98550093"
       id="rect3802"
       width="1831.4285"
       height="107.14286"
       x="34.285767"
       y="180" />
    <rect
       style="fill:#550000"
       id="rect3804"
       width="45.011208"
       height="31.773888"
       x="34.285767"
       y="180" />
    <text
       xml:space="preserve"
       style="font-style:normal;font-weight:normal;font-size:15.86110115px;line-height:1.25;font-family:sans-serif;letter-spacing:0px;word-spacing:0px;fill:#000000;fill-opacity:1;stroke:none;stroke-width:0.3965275"
       x="17.712057"
       y="152.68097"
       id="text3808"
       transform="scale(0.85904356,1.1640853)"><tspan
         sodipodi:role="line"
         id="tspan3806"
         x="17.712057"
         y="152.68097"
         style="stroke-width:0.3965275">Profile Picture</tspan></text>
    <path
       style="fill:#000000"
       id="path3810"
       d="m 28.292929,179.44805 c -1.194804,1.20192 -2.322904,2.46171 -3.388692,3.77835 -0.666693,0.74439 -1.14566,1.57149 -1.241804,2.57325 0.08776,0.76528 0.558831,1.33012 1.096925,1.83963 0.640234,0.50682 1.32529,0.93214 2.038576,1.32808 0.114469,0.0452 0.233779,0.0796 0.343406,0.13549 0.658618,0.33581 0.04748,0.10918 0.68072,0.38855 0.360823,0.15919 0.722725,0.2244 1.081091,0.39666 0.899693,0.33178 1.859309,0.40613 2.80832,0.45977 0.917883,0.0519 1.800163,0.33319 2.717145,0.43906 0.952675,0.0877 1.91039,0.0906 2.866266,0.0961 1.008082,0.003 2.016168,-2e-4 3.02425,-0.001 0.423289,-0.0549 0.870965,0.0577 1.292602,-0.005 0.344239,-0.0509 0.710021,-0.22132 1.054199,-0.29826 0.133951,-0.0214 0.272421,-0.0236 0.401854,-0.0642 0.236988,-0.0743 0.445306,-0.22414 0.681107,-0.30216 0.405407,-0.13415 0.803788,-0.18878 1.204145,-0.34419 0.872564,-0.30439 1.863093,-0.43172 2.63772,-0.95522 -2.050861,1.17568 -4.092382,2.36781 -6.152582,3.52705 -0.09057,0.051 0.166421,-0.12573 0.239344,-0.19977 0.281189,-0.28549 0.168935,-0.73604 0.136548,-1.09003 -0.202437,-0.75146 -0.44221,-1.50343 -0.807402,-2.19262 -0.482791,-0.64543 -0.532187,-1.4943 -0.887276,-2.18462 -0.344803,-0.63276 -0.778602,-1.19943 -1.053579,-1.86798 -0.723963,-2.80479 -0.26532,-0.58971 6.825526,-3.77893 0.09662,-0.0435 1.014359,0.86123 1.133954,0.99419 0.558052,0.50167 0.983774,1.16201 1.313811,1.8331 0.438533,0.64414 0.654515,1.39373 0.951035,2.10618 0.348711,0.86397 0.432119,1.7921 0.488857,2.71251 -0.01437,0.92295 0.05672,1.8186 0.237096,2.72184 0.172328,0.76644 0.338422,1.11103 -0.152185,1.77586 -2.203975,1.84995 -3.848526,2.15732 -7.192997,4.29851 -1.992682,1.27574 4.097606,-2.36707 6.152078,-3.54072 0.204326,-0.11673 -0.396737,0.25346 -0.600534,0.37111 -4.071352,2.60485 -13.713417,7.91405 -0.917573,0.60996 0.107931,-0.0616 -0.202404,0.14501 -0.310282,0.20671 -2.262194,1.2939 -4.499485,2.63356 -6.799147,3.85963 -2.078987,1.10841 4.091245,-2.33769 6.136867,-3.50653 -22.543275,12.95887 4.186426,-2.41445 -0.92854,0.57563 -2.248241,1.31426 -4.537048,2.55964 -6.763494,3.9105 -2.01611,1.22324 4.08412,-2.35886 6.132331,-3.52756 0.107575,-0.0614 -0.206498,0.13682 -0.309746,0.20524 -2.289814,1.2797 -4.578245,2.56189 -6.869441,3.83912 -0.308907,0.1722 -0.467342,0.25737 -0.803315,0.37597 -0.145307,0.0513 -0.575739,0.21087 -0.442717,0.13308 8.495317,-4.96758 7.889318,-4.58928 5.696539,-3.18367 -2.807009,1.90347 -5.815173,3.46056 -8.766661,5.14056 16.003647,-9.18292 -0.477698,0.29339 -0.720984,0.43251 -2.021569,1.15601 8.086178,-4.62401 6.054616,-3.48564 -0.173857,0.0974 -16.815065,9.65368 -0.770856,0.44078 0,0 -6.999879,2.73838 -6.999879,2.73838 v 0 c 22.518633,-13.15186 -14.981817,8.70006 7.569694,-4.41371 0.242346,-0.14092 -17.707915,10.23314 0.739227,-0.40107 -11.1453,6.46417 -6.510918,3.86655 -4.098999,2.29448 0.124104,-0.0905 0.239447,-0.19437 0.372312,-0.27139 2.274876,-1.31869 4.557298,-2.62449 6.848609,-3.91441 0.259387,-0.14603 0.544147,-0.24151 0.816844,-0.36085 0.13696,-0.0599 0.543296,-0.24708 0.41468,-0.17087 -2.009412,1.19068 -4.04054,2.34433 -6.06081,3.5165 2.573798,-1.39794 0.918042,-0.49442 7.061448,-4.10497 2.030646,-1.19344 -4.070236,2.37159 -6.105354,3.55738 0.101608,-0.0647 0.201136,-0.13283 0.304824,-0.19416 2.238147,-1.32391 4.593595,-2.46536 6.720502,-3.96145 1.925325,-1.3543 -4.075729,2.35636 -6.113594,3.53454 11.364688,-6.51626 6.720147,-3.86538 0.664242,-0.34776 -0.105614,0.0613 0.216609,-0.11311 0.322174,-0.17454 2.247996,-1.30819 4.495654,-2.61698 6.738354,-3.93423 1.929077,-1.13304 -8.49997,5.07182 -5.804316,3.36986 0.420628,-0.4098 0.08749,-0.13545 0.579511,-0.42058 2.245427,-1.30126 4.456086,-2.66356 6.727634,-3.91867 2.074044,-1.14598 -4.090248,2.39366 -6.134955,3.5912 -0.169789,0.0994 0.699885,-0.37031 0.459439,-0.37063 0.07841,-0.027 0.156815,-0.0541 0.235222,-0.0811 0.05297,-0.0461 0.09285,-0.11451 0.158913,-0.13835 0.06139,-0.0221 0.137613,0.0406 0.195499,0.0105 0.216763,-0.11284 -0.102913,-0.67784 -0.06469,-0.82057 -0.188093,-0.93796 -0.336235,-1.85781 -0.28127,-2.82085 -0.0378,-0.83742 -0.07889,-1.68875 -0.379019,-2.4814 -0.290148,-0.70058 -0.502323,-1.43306 -0.930743,-2.06736 -0.292177,-0.61274 -0.699492,-1.17641 -1.201368,-1.63425 -0.22351,-0.22398 -0.455292,-0.44952 -0.716319,-0.6307 -0.09673,-0.0671 -0.39822,-0.1195 -0.300663,-0.18543 6.042656,-4.084 8.190462,-2.32713 6.099063,-3.96129 0.172808,0.66432 0.680433,1.16644 0.974907,1.77962 0.368517,0.69399 0.417397,1.52075 0.878195,2.18653 0.410297,0.77452 0.68339,1.60541 0.950646,2.43849 0.507075,4.01294 -1.360069,2.68356 -6.765319,5.94703 -0.895017,0.30496 -1.796229,0.58702 -2.699568,0.86592 -0.783937,0.21028 -1.532507,0.52672 -2.335511,0.66192 -0.804184,0.18712 -1.609732,0.18306 -2.433342,0.15843 -1.010025,0.001 -2.020088,0.004 -3.030084,-0.005 -0.9774,-0.0147 -1.957924,-0.0325 -2.927403,-0.17006 -0.893962,-0.14405 -1.772013,-0.39471 -2.68325,-0.40641 -1.01077,-0.0968 -2.021733,-0.24574 -2.961897,-0.65127 -0.750391,-0.2721 -1.460301,-0.60796 -2.15602,-1.00066 -0.742091,-0.45272 -1.484093,-0.89988 -2.133224,-1.48513 -0.671117,-0.66881 -1.189877,-1.42969 -1.38802,-2.37332 -0.06122,-1.13853 0.316673,-2.17714 1.051171,-3.05481 1.118018,-1.27587 2.160281,-2.61906 3.35133,-3.83199 0,0 6.924052,-2.86804 6.924052,-2.86804 z"
       inkscape:connector-curvature="0" />
    <rect
       style="fill:#ccff00"
       id="rect3812"
       width="186.37314"
       height="31.819813"
       x="79.296974"
       y="179.95409" />
    <text
       xml:space="preserve"
       style="font-style:normal;font-weight:normal;font-size:31.61376381px;line-height:1.25;font-family:sans-serif;letter-spacing:0px;word-spacing:0px;fill:#000000;fill-opacity:1;stroke:none;stroke-width:0.79034406"
       x="82.506569"
       y="212.94452"
       id="text3816"
       transform="scale(1.0370205,0.96430108)"><tspan
         sodipodi:role="line"
         id="tspan3814"
         x="82.506569"
         y="212.94452"
         style="stroke-width:0.79034406">Name</tspan></text>
    <rect
       style="fill:#ffaaaa"
       id="rect3818"
       width="173.74625"
       height="32.32489"
       x="265.6701"
       y="179.44901" />
    <text
       xml:space="preserve"
       style="font-style:normal;font-weight:normal;font-size:19.54158401px;line-height:1.25;font-family:sans-serif;letter-spacing:0px;word-spacing:0px;fill:#000000;fill-opacity:1;stroke:none;stroke-width:0.48853961"
       x="363.54727"
       y="161.76178"
       id="text3822"
       transform="scale(0.79448249,1.258681)"><tspan
         sodipodi:role="line"
         id="tspan3820"
         x="363.54727"
         y="161.76178"
         style="stroke-width:0.48853961">Time/Date Posted</tspan></text>
    <text
       xml:space="preserve"
       style="font-style:normal;font-weight:normal;font-size:40px;line-height:1.25;font-family:sans-serif;letter-spacing:0px;word-spacing:0px;fill:#000000;fill-opacity:1;stroke:none"
       x="51.012703"
       y="263.79675"
       id="text3826"><tspan
         sodipodi:role="line"
         id="tspan3824"
         x="51.012703"
         y="263.79675">Body of Text/Image</tspan></text>
    <rect
       style="fill:#2d5016"
       id="rect3828"
       width="39.863506"
       height="107.03025"
       x="1825.8507"
       y="180" />
    <text
       xml:space="preserve"
       style="font-style:normal;font-weight:normal;font-size:19.13277435px;line-height:1.25;font-family:sans-serif;letter-spacing:0px;word-spacing:0px;fill:#000000;fill-opacity:1;stroke:none;stroke-width:0.47831935"
       x="1873.9543"
       y="179.78084"
       id="text3832"
       transform="scale(0.89117123,1.1221188)"><tspan
         sodipodi:role="line"
         id="tspan3830"
         x="1873.9543"
         y="179.78084"
         style="stroke-width:0.47831935">Pin, Mark Unread, </tspan><tspan
         sodipodi:role="line"
         x="1873.9543"
         y="203.69681"
         id="tspan3834"
         style="stroke-width:0.47831935">Edit, Delete</tspan></text>
    <path
       style="fill:#000000"
       id="path3836"
       d="m 1799.0885,217.94741 c 1.0669,1.41454 2.3309,2.66987 3.6622,3.83392 0.9483,0.9205 1.9453,1.84009 3.0972,2.50059 0.9579,0.52466 1.8098,1.22395 2.7465,1.7841 1.0189,0.46354 2.0119,0.9857 3.074,1.34496 0.927,0.38284 1.8614,0.80865 2.8337,1.06707 0.943,0.23395 1.8436,0.55764 2.8127,0.69062 0.9187,0.35135 1.8975,0.46768 2.8709,0.54604 1.0157,0.0636 2.034,0.0611 3.0513,0.0619 1.0114,-0.001 2.0229,-0.004 3.0343,-0.005 0.9264,0.10152 1.7883,-0.22047 2.6911,-0.36085 0.4599,-0.31344 1.0284,-0.323 1.5336,-0.49326 0.2438,-0.0822 0.4639,-0.22347 0.703,-0.31831 0.7801,-0.20414 1.5552,-0.45562 2.2889,-0.79862 0.8067,-0.31027 1.689,-0.5375 2.4212,-1.00507 -0.7202,0.17045 1.7669,-0.75148 1.1586,-0.3952 -2.0201,1.18318 -8.0487,4.77116 -6.1243,3.43791 2.1655,-1.50036 4.5645,-2.63207 6.8508,-3.94121 1.9903,-1.13968 -3.9754,2.28858 -5.963,3.43286 17.7203,-10.1764 1.5763,-0.90422 0.9301,-0.53685 -0.1451,0.0825 0.28,-0.18139 0.4207,-0.27108 0.4188,-0.26696 0.8383,-0.53254 1.2619,-0.79177 0.6014,-0.39948 1.2187,-0.76151 1.5169,-1.44123 0.2246,-0.59812 0.123,-1.04593 -0.1696,-1.58056 -0.3508,-0.7319 -0.7961,-1.41295 -1.1382,-2.15074 -0.4307,-0.70467 -0.8361,-1.40264 -1.2151,-2.1361 -0.3025,-0.82579 -0.9128,-1.3798 -1.516,-1.98329 -0.5855,-0.64967 -1.1314,-1.34374 -1.7682,-1.94462 -0.6035,-0.56502 -1.0219,-1.28106 -1.5555,-1.90746 -0.5113,-0.59695 -0.9696,-1.22536 -1.3928,-1.88905 -0.4839,-0.53343 -0.8796,-1.12416 -1.308,-1.6994 -0.018,0.19793 -0.2837,-0.37589 -0.2901,-0.24869 0,0.0945 0.033,0.30222 0.1166,0.25874 2.1849,-1.13077 4.2484,-2.4845 6.4195,-3.64149 0.061,-0.0325 0.013,0.13814 0.028,0.20555 0.023,0.0985 0.057,0.19391 0.086,0.29087 0.3051,0.77483 0.693,1.511 1.013,2.2787 0.3465,0.69899 0.7292,1.38215 1.0387,2.09861 0.416,0.73337 0.6099,1.55975 1.0457,2.284 0.3341,0.68796 0.7533,1.31266 1.1909,1.93587 0.3498,0.61672 0.7329,1.22881 1.2286,1.73929 0.505,0.5594 0.9622,1.13994 1.4727,1.69376 0.6817,0.55694 1.227,1.26291 1.7524,1.96384 0.4411,0.61717 0.7569,1.30783 1.14,1.95682 0.408,0.65328 0.5195,1.34656 0.2729,2.07486 -0.2599,0.74567 -0.6991,1.40335 -1.0972,2.07953 -0.5884,0.8994 -1.0445,1.87829 -1.5211,2.8397 -0.4437,0.96444 -0.9579,1.8913 -1.457,2.82672 -0.4915,0.82419 -0.8473,1.70386 -1.1446,2.61424 -0.3951,0.88598 -0.8471,1.75396 -1.3024,2.61327 -0.3643,0.78964 -0.6699,1.61312 -0.8791,2.45788 -0.1527,0.88841 -0.3579,1.77422 -0.698,2.61063 -0.1694,0.48813 -0.4041,0.94501 -0.6265,1.40963 0,0 -6.8316,3.15096 -6.8316,3.15096 v 0 c 0.1763,-0.49811 0.4635,-0.91682 0.6254,-1.41507 0.3468,-0.79787 0.6739,-1.61451 0.7705,-2.48934 0.1678,-0.9161 0.4709,-1.76272 0.7869,-2.63287 0.4221,-0.85002 0.8112,-1.72203 1.3744,-2.49347 0.2529,-0.93722 0.5321,-1.91496 1.0858,-2.71816 0.4243,-0.98244 1.0746,-1.84701 1.4619,-2.85161 0.5124,-0.96092 0.9585,-1.9555 1.4624,-2.92061 0.4662,-0.57062 0.8327,-1.27192 1.1491,-1.92723 0.3205,-0.63412 0.4695,-0.76675 0.046,-1.46025 -0.3612,-0.62749 -0.6526,-1.29545 -1.0806,-1.88694 -0.5179,-0.6795 -1.0607,-1.34014 -1.714,-1.89603 -0.5177,-0.54848 -0.9702,-1.14187 -1.483,-1.6951 -0.4897,-0.55909 -0.9189,-1.17044 -1.2767,-1.82217 -0.4526,-0.63763 -0.8687,-1.2893 -1.2159,-1.99132 -0.4433,-0.75935 -0.674,-1.60279 -1.0983,-2.3696 -0.2997,-0.72387 -0.6977,-1.40451 -1.039,-2.10937 -0.316,-0.78994 -0.7153,-1.54434 -1.054,-2.32483 -0.01,-0.0258 -0.2384,-0.69327 -0.2273,-0.70132 6.9614,-5.07327 4.7608,-6.00194 6.9477,-3.62082 0.4266,0.59498 0.8662,1.17109 1.3297,1.73949 0.4096,0.63594 0.8518,1.23788 1.342,1.81379 0.4993,0.62091 0.9363,1.29129 1.5187,1.8417 0.6097,0.62893 1.1726,1.30114 1.7591,1.95153 0.6594,0.64983 1.2988,1.29743 1.6383,2.18121 0.3874,0.74123 0.8118,1.44546 1.2344,2.16845 0.3265,0.72419 0.7797,1.3792 1.1231,2.09371 0.3755,0.67279 0.6407,1.32289 0.4397,2.1061 -0.1539,0.86253 -0.5222,1.49673 -1.3282,1.91606 -0.5176,0.41126 -1.1072,0.75447 -1.6794,1.08902 -7.4356,4.34718 -10.3524,6.02827 -0.9211,0.5641 -2.2942,1.32775 -4.5916,2.65006 -6.8827,3.98325 -2.0008,1.16424 8.1117,-4.45047 6.0117,-3.47643 -2.376,1.10208 -4.5533,2.59004 -6.8428,3.86193 -0.3419,0.18989 -0.7543,0.2699 -1.0818,0.4952 -0.8212,0.31246 -1.6259,0.66342 -2.4555,0.95473 -0.7682,0.26454 -1.5286,0.54152 -2.3003,0.79392 -0.752,0.28379 -1.5439,0.49402 -2.3211,0.69154 -0.9157,0.18038 -1.8213,0.32319 -2.7607,0.25087 -1.0121,0.002 -2.0242,0.005 -3.0363,0.001 -1.0317,-0.008 -2.0653,-0.0164 -3.0926,-0.1216 -0.9852,-0.11913 -1.9479,-0.32527 -2.9054,-0.58398 -0.9725,-0.19578 -1.9014,-0.53296 -2.8626,-0.77417 -0.9635,-0.33207 -1.9135,-0.70948 -2.853,-1.10369 -1.0801,-0.42829 -2.1361,-0.92491 -3.158,-1.47751 -0.9114,-0.60042 -1.8095,-1.21873 -2.7466,-1.77905 -1.1374,-0.75851 -2.1687,-1.67554 -3.1468,-2.62769 -1.343,-1.25375 -2.6352,-2.56767 -3.7892,-3.99959 0,0 6.4806,-3.77189 6.4806,-3.77189 z"
       inkscape:connector-curvature="0" />
    <rect
       style="fill:#ff00ff"
       id="rect3838"
       width="35.714233"
       height="907.14282"
       x="1884.2858"
       y="85.714287" />
    <text
       xml:space="preserve"
       style="font-style:normal;font-weight:normal;font-size:40px;line-height:1.25;font-family:sans-serif;letter-spacing:0px;word-spacing:0px;fill:#000000;fill-opacity:1;stroke:none"
       x="1695.7142"
       y="475.71429"
       id="text3842"><tspan
         sodipodi:role="line"
         id="tspan3840"
         x="1695.7142"
         y="475.71429">Scrollbar</tspan></text>
    <path
       style="fill:#000000"
       id="path3844"
       d="m 1745.3026,438.72075 c 2.1875,-3.83483 4.5164,-7.57944 6.7408,-11.39161 1.9249,-2.91669 3.9942,-5.79342 6.4534,-8.28436 2.6457,-2.45522 5.3974,-4.79011 8.2264,-7.03038 2.8949,-2.02682 5.5068,-4.42021 8.3239,-6.54755 35.1781,-20.47396 17.5535,-10.1732 2.7945,-1.73698 -0.431,0.24638 0.8423,-0.52594 1.2646,-0.78699 1.5258,-0.94313 3.035,-1.91028 4.5533,-2.86547 8.5994,-5.34203 17.1543,-10.94026 26.4072,-15.05524 0.4461,-0.14794 1.7442,-0.6813 1.3385,-0.44382 -30.0694,17.60281 -20.9128,11.78812 -14.4975,8.0644 17.0181,-9.87793 33.0605,-19.07438 2.6617,-1.60625 8.3928,-5.0133 16.7324,-10.5385 25.7627,-14.43176 2.6217,-1.06202 5.2518,-2.04326 7.8793,-3.11447 1.2188,-0.59252 2.6173,-0.53083 3.8916,-0.87029 1.2243,-0.32616 2.2637,-0.83319 3.5349,-1.0729 3.0134,-0.20621 5.9168,-0.8787 8.8772,-1.4207 2.9567,-0.19199 5.7922,-0.88093 8.6905,-1.42863 1.8894,-0.49685 3.8938,-0.2599 5.7994,-0.5642 0.8064,-0.12878 1.5707,-0.44831 2.3587,-0.66271 2.5341,-0.62811 5.1511,-0.73242 7.7482,-0.81682 2.6573,-0.33297 5.1642,0.53573 7.7536,0.95479 2.6751,0.17899 5.2402,0.95055 7.8708,1.43782 2.2693,0.0818 3.9483,1.62421 5.9328,2.47442 1.6673,1.25211 3.4945,2.25454 5.1692,3.48136 1.7771,1.08954 3.7544,1.82589 5.5206,2.92384 1.4291,0.37572 3.6474,2.77102 4.9558,1.55958 -28.1878,16.34327 -16.0458,15.34871 -17.7396,5.82629 -0.663,-2.24863 -0.9946,-4.56155 -1.6977,-6.79679 -0.8325,-2.50527 -1.078,-5.13188 -1.2356,-7.75029 -0.1265,-2.8423 -0.1159,-5.68836 -0.1154,-8.53279 0,-2.86084 0.01,-5.72167 0.012,-8.58251 -0.015,-2.74001 0.034,-5.48078 -0.018,-8.22044 -0.358,-7.69402 -5.3566,0.45192 18.977,-9.59574 0.3144,-0.12985 -0.01,0.68041 -0.012,1.02063 -0.01,0.93502 -0.01,1.48635 -0.015,2.43244 -0.011,2.81479 -0.01,5.6296 -0.011,8.44441 -10e-5,2.87204 3e-4,5.74408 5e-4,8.61613 10e-5,2.85875 10e-5,5.71749 2e-4,8.57624 0,2.85701 0,5.71402 0,8.57104 -0.1055,2.32194 -0.7334,4.5738 -1.0869,6.86405 -0.3909,2.04295 -0.9034,4.15303 -2.1775,5.83139 -6.7991,6.00748 -15.4355,9.93443 -23.8401,13.28254 -2.4702,0.77864 -4.8451,1.75151 -7.2193,2.77097 -2.4455,0.84268 -4.8075,1.82989 -7.1727,2.8615 -2.3935,0.47991 -4.6502,1.36583 -6.9937,1.95499 -1.5228,0.22482 -2.8506,0.98216 -4.3394,1.38912 0,0 16.8187,-13.02653 16.8187,-13.02653 v 0 c 1.4393,-0.52233 2.8746,-1.00558 4.3711,-1.34172 2.2712,-0.74018 4.634,-1.16974 6.8133,-2.17175 2.3563,-1.0359 4.8282,-1.79875 7.1819,-2.84751 2.3738,-1.01552 4.8647,-1.74258 7.2426,-2.75416 14.3997,-6.16995 -22.7334,12.70391 -12.5688,7.99678 2.0705,-1.38483 1.9467,-2.29638 2.799,-4.52439 0.231,-2.24973 0.7488,-4.44317 1.2524,-6.6454 0,-2.85702 0,-5.71403 0,-8.57104 10e-5,-2.85882 10e-5,-5.71763 2e-4,-8.57645 2e-4,-2.87221 6e-4,-5.74443 5e-4,-8.61664 -3e-4,-2.81119 -10e-5,-5.62239 -0.011,-8.43356 0,-0.27807 -0.237,-3.29837 -0.027,-3.42576 24.3331,-14.74914 19.3211,-17.57143 18.9769,-9.74252 -0.052,2.74724 0,5.49554 -0.023,8.24313 0,2.86072 -0.01,5.72144 -0.012,8.58216 0,2.80929 -0.017,5.61951 0.072,8.42777 0.11,2.44433 0.2568,4.9097 1.0056,7.25798 0.7382,2.29581 1.109,4.64636 1.7913,6.95959 2.8554,11.08945 -4.418,9.08325 -18.1364,16.95662 -1.9975,-0.61431 -3.7867,-1.75359 -5.6609,-2.66039 -1.9092,-0.95641 -3.82,-1.92697 -5.6221,-3.07516 -1.6775,-1.05674 -3.2512,-2.26152 -4.9944,-3.21061 -1.7979,-0.95175 -3.516,-1.89246 -5.6028,-2.04552 -2.6051,-0.54607 -5.199,-1.10695 -7.8481,-1.40015 -2.482,-0.47108 -4.9199,-0.9224 -7.4629,-0.57958 -2.5415,0.16731 -5.068,0.46398 -7.5325,1.13645 -2.7025,0.5355 -5.4881,0.50181 -8.1777,1.14762 -2.8836,0.59383 -5.7921,0.92607 -8.6936,1.41405 -2.935,0.58295 -5.9052,0.88623 -8.8271,1.52379 -2.4129,0.74166 -4.9005,1.21552 -7.2347,2.19354 -2.5953,1.07481 -5.2658,1.9605 -7.8057,3.17452 -1.2984,0.64403 -2.6038,1.26939 -3.8868,1.94398 -0.4154,0.21843 -1.6491,0.8965 -1.244,0.65943 20.4238,-11.95349 22.3342,-13.12691 15.7454,-9.11843 -6.4614,3.79287 -13.0411,7.39095 -19.3842,11.37862 -5.4602,3.43265 11.141,-6.50139 16.7343,-9.71269 0.88,-0.50526 -1.7172,1.08292 -2.5972,1.58815 -19.8451,11.39315 -12.5884,8.0741 -20.627,11.69686 -6.6574,3.35025 -14.4792,8.13889 14.1504,-8.49696 0.4383,-0.25468 -0.8756,0.51228 -1.296,0.79559 -2.6682,1.79836 0.039,0.22633 -2.9169,1.84622 -11.4589,7.50798 -46.3146,27.01121 -8.623,5.30833 -2.9847,1.90724 -5.5498,4.35386 -8.3189,6.55413 -3.0747,1.8316 -5.5815,4.48673 -8.3532,6.74103 -0.3198,0.27707 -2.2251,1.90343 -2.5193,2.25209 -0.3761,0.44566 -0.6206,0.98854 -0.9639,1.45996 -1.0284,1.41224 -2.3772,2.54912 -3.2012,4.11196 -2.3167,3.22184 -0.01,-0.19201 -2.0483,3.53421 -1.4315,2.61636 -3.4014,4.93299 -4.7305,7.61707 0,0 -19.3333,8.74703 -19.3333,8.74703 z"
       inkscape:connector-curvature="0" />
    <rect
       style="fill:#0000ff"
       id="rect3846"
       width="468.57144"
       height="85.714287"
       x="1362.8572"
       y="0" />
    <text
       xml:space="preserve"
       style="font-style:normal;font-weight:normal;font-size:40px;line-height:1.25;font-family:sans-serif;letter-spacing:0px;word-spacing:0px;fill:#ffff00;fill-opacity:1;stroke:none"
       x="1384.2856"
       y="60"
       id="text3850"><tspan
         sodipodi:role="line"
         id="tspan3848"
         x="1384.2856"
         y="60">Channel Icons</tspan></text>
  </g>
</svg>
